<svg width="142" height="29" viewBox="0 0 142 29" fill="none" xmlns="http://www.w3.org/2000/svg">
<circle cx="137.368" cy="25.1842" r="3.81579" transform="rotate(180 137.368 25.1842)" fill="#696969" fill-opacity="0.38"/>
<circle cx="137.368" cy="3.81605" r="3.81579" transform="rotate(180 137.368 3.81605)" fill="#696969" fill-opacity="0.38"/>
<circle cx="60.2894" cy="25.1842" r="3.81579" transform="rotate(180 60.2894 25.1842)" fill="#696969" fill-opacity="0.38"/>
<circle cx="60.2894" cy="3.81605" r="3.81579" transform="rotate(180 60.2894 3.81605)" fill="#696969" fill-opacity="0.38"/>
<ellipse cx="98.8289" cy="25.1842" rx="4.19737" ry="3.81579" transform="rotate(180 98.8289 25.1842)" fill="#696969" fill-opacity="0.38"/>
<ellipse cx="98.8289" cy="3.81605" rx="4.19737" ry="3.81579" transform="rotate(180 98.8289 3.81605)" fill="#696969" fill-opacity="0.38"/>
<circle cx="22.8947" cy="25.1842" r="3.81579" transform="rotate(180 22.8947 25.1842)" fill="#696969" fill-opacity="0.38"/>
<circle cx="22.8947" cy="3.81605" r="3.81579" transform="rotate(180 22.8947 3.81605)" fill="#696969" fill-opacity="0.38"/>
<circle cx="118.289" cy="25.1842" r="3.81579" transform="rotate(180 118.289 25.1842)" fill="#696969" fill-opacity="0.38"/>
<circle cx="118.289" cy="3.81556" r="3.81579" transform="rotate(180 118.289 3.81556)" fill="#696969" fill-opacity="0.38"/>
<ellipse cx="41.592" cy="25.1842" rx="3.43421" ry="3.81579" transform="rotate(180 41.592 25.1842)" fill="#696969" fill-opacity="0.38"/>
<ellipse cx="41.592" cy="3.81605" rx="3.43421" ry="3.81579" transform="rotate(180 41.592 3.81605)" fill="#696969" fill-opacity="0.38"/>
<circle cx="79.3683" cy="25.1842" r="3.81579" transform="rotate(180 79.3683 25.1842)" fill="#696969" fill-opacity="0.38"/>
<circle cx="79.3683" cy="3.81605" r="3.81579" transform="rotate(180 79.3683 3.81605)" fill="#696969" fill-opacity="0.38"/>
<circle cx="3.81568" cy="25.1842" r="3.81579" transform="rotate(180 3.81568 25.1842)" fill="#696969" fill-opacity="0.38"/>
<circle cx="3.81568" cy="3.81605" r="3.81579" transform="rotate(180 3.81568 3.81605)" fill="#696969" fill-opacity="0.38"/>
</svg>
