<svg width="29" height="139" viewBox="0 0 29 139" fill="none" xmlns="http://www.w3.org/2000/svg">
<circle cx="3.74964" cy="134.987" r="3.74964" transform="rotate(-90 3.74964 134.987)" fill="#DBDBDB"/>
<circle cx="24.7477" cy="134.987" r="3.74964" transform="rotate(-90 24.7477 134.987)" fill="#DBDBDB"/>
<circle cx="3.74964" cy="59.2445" r="3.74964" transform="rotate(-90 3.74964 59.2445)" fill="#DBDBDB"/>
<circle cx="24.7477" cy="59.2445" r="3.74964" transform="rotate(-90 24.7477 59.2445)" fill="#DBDBDB"/>
<ellipse cx="3.74964" cy="97.1156" rx="4.12461" ry="3.74964" transform="rotate(-90 3.74964 97.1156)" fill="#DBDBDB"/>
<ellipse cx="24.7477" cy="97.1156" rx="4.12461" ry="3.74964" transform="rotate(-90 24.7477 97.1156)" fill="#DBDBDB"/>
<circle cx="3.74964" cy="22.4979" r="3.74964" transform="rotate(-90 3.74964 22.4979)" fill="#DBDBDB"/>
<circle cx="24.7477" cy="22.4979" r="3.74964" transform="rotate(-90 24.7477 22.4979)" fill="#DBDBDB"/>
<circle cx="3.74964" cy="116.239" r="3.74964" transform="rotate(-90 3.74964 116.239)" fill="#DBDBDB"/>
<circle cx="24.7477" cy="116.239" r="3.74964" transform="rotate(-90 24.7477 116.239)" fill="#DBDBDB"/>
<ellipse cx="3.74964" cy="40.8709" rx="3.37468" ry="3.74964" transform="rotate(-90 3.74964 40.8709)" fill="#DBDBDB"/>
<ellipse cx="24.7477" cy="40.8709" rx="3.37468" ry="3.74964" transform="rotate(-90 24.7477 40.8709)" fill="#DBDBDB"/>
<circle cx="3.74964" cy="77.9925" r="3.74964" transform="rotate(-90 3.74964 77.9925)" fill="#DBDBDB"/>
<circle cx="24.7477" cy="77.9925" r="3.74964" transform="rotate(-90 24.7477 77.9925)" fill="#DBDBDB"/>
<circle cx="3.74964" cy="3.74987" r="3.74964" transform="rotate(-90 3.74964 3.74987)" fill="#DBDBDB"/>
<circle cx="24.7477" cy="3.74987" r="3.74964" transform="rotate(-90 24.7477 3.74987)" fill="#DBDBDB"/>
</svg>
