<svg width="17" height="80" viewBox="0 0 17 80" fill="none" xmlns="http://www.w3.org/2000/svg">
<circle cx="2.15505" cy="77.5818" r="2.15505" transform="rotate(-90 2.15505 77.5818)" fill="#949494"/>
<circle cx="14.2233" cy="77.5818" r="2.15505" transform="rotate(-90 14.2233 77.5818)" fill="#949494"/>
<circle cx="2.15505" cy="34.0495" r="2.15505" transform="rotate(-90 2.15505 34.0495)" fill="#949494"/>
<circle cx="14.2233" cy="34.0495" r="2.15505" transform="rotate(-90 14.2233 34.0495)" fill="#949494"/>
<ellipse cx="2.15505" cy="55.816" rx="2.37055" ry="2.15505" transform="rotate(-90 2.15505 55.816)" fill="#949494"/>
<ellipse cx="14.2233" cy="55.816" rx="2.37055" ry="2.15505" transform="rotate(-90 14.2233 55.816)" fill="#949494"/>
<circle cx="2.15505" cy="12.9304" r="2.15505" transform="rotate(-90 2.15505 12.9304)" fill="#949494"/>
<circle cx="14.2233" cy="12.9304" r="2.15505" transform="rotate(-90 14.2233 12.9304)" fill="#949494"/>
<circle cx="2.15505" cy="66.8064" r="2.15505" transform="rotate(-90 2.15505 66.8064)" fill="#949494"/>
<circle cx="14.2233" cy="66.8064" r="2.15505" transform="rotate(-90 14.2233 66.8064)" fill="#949494"/>
<ellipse cx="2.15505" cy="23.4901" rx="1.93954" ry="2.15505" transform="rotate(-90 2.15505 23.4901)" fill="#949494"/>
<ellipse cx="14.2233" cy="23.4901" rx="1.93954" ry="2.15505" transform="rotate(-90 14.2233 23.4901)" fill="#949494"/>
<circle cx="2.15505" cy="44.8249" r="2.15505" transform="rotate(-90 2.15505 44.8249)" fill="#949494"/>
<circle cx="14.2233" cy="44.8249" r="2.15505" transform="rotate(-90 14.2233 44.8249)" fill="#949494"/>
<circle cx="2.15505" cy="2.15501" r="2.15505" transform="rotate(-90 2.15505 2.15501)" fill="#949494"/>
<circle cx="14.2233" cy="2.15501" r="2.15505" transform="rotate(-90 14.2233 2.15501)" fill="#949494"/>
</svg>
